# xmcd CD database file
#
# Track frame offsets:
#	150
#	19785
#	57190
#	76907
#	107860
#	144175
#	164772
#	195905
#	228085
#	260042
#
# Disc length: 3709 seconds
#
# Revision: 3
# Processed by: cddbd v1.5.2PL0 Copyright (c) Steve Scherf et al.
# Submitted via: CDex 1.51
#
DISCID=7b0e7b0a
DTITLE=Khan, Chaka - Love You All My Lifetime
DYEAR=1992
DGENRE=Club-House
TTITLE0=Love You All My Lifetime (Radio Edit)
TTITLE1=Love You All My Lifetime (Love Suite Mix Opus 12 Part I) 
TTITLE2=Love You All My Lifetime (Love Suite Mix Opus 12 Part II)
TTITLE3=Love You All My Lifetime (House Mix)
TTITLE4=Love You All My Lifetime (Diva Mix)
TTITLE5=Keep Givin' Me Lovin' (Album Version)
TTITLE6=Love You All My Lifetime (Garage Mix w/ Strings)
TTITLE7=Love You All My Lifetime (Love and Kisses Breakdown Mix)
TTITLE8=Love You All My Lifetime (Diva Dub)
TTITLE9=Love You All My Lifetime (Single Mix)
EXTD=YEAR: 1992
EXTT0=
EXTT1=
EXTT2=
EXTT3=
EXTT4=
EXTT5=
EXTT6=
EXTT7=
EXTT8=
EXTT9=
PLAYORDER=
